<svg xmlns="http://www.w3.org/2000/svg" xmlns:xlink="http://www.w3.org/1999/xlink" width="175" height="66" viewBox="0 0 175 66"><defs><path id="a" d="M16.682 10.653h-.016C12.17 15.431 5.13 21.801 3.386 24.015A14.282 14.282 0 00.33 34.27c.415 2.422 1.47 7.199 1.47 7.199a18.414 18.414 0 014.8-10.718c4.497-4.778 11.537-11.149 13.28-13.377a15.884 15.884 0 003.06-10.257A25.027 25.027 0 0021.05.222a15.983 15.983 0 01-4.367 10.431"/><path id="d" d="M17.354 11.621v.08C12.714 16.479 5.45 22.85 3.658 25.126A15.888 15.888 0 00.458 35.4a43.948 43.948 0 001.153 6.895A20.245 20.245 0 016.97 31.8c4.64-4.777 11.905-11.148 13.696-13.424a14.001 14.001 0 003.2-10.273A613.143 613.143 0 0022.314.887a18.36 18.36 0 01-4.96 10.734"/><path id="g" d="M.524.268h16.848v18.883H.524z"/><radialGradient id="b" cx="47.922%" cy="56.722%" r="70.969%" fx="47.922%" fy="56.722%" gradientTransform="scale(1 .55022) rotate(44.867 -.082 .8)"><stop offset="0%" stop-color="#FFF9C1"/><stop offset="100%" stop-color="#CDA349"/></radialGradient><radialGradient id="e" cx="50.381%" cy="41.624%" r="69.811%" fx="50.381%" fy="41.624%" gradientTransform="scale(1 .56713) rotate(44.867 .12 .575)"><stop offset="0%" stop-color="#FFF9C1"/><stop offset="100%" stop-color="#CDA349"/></radialGradient></defs><g fill="none" fill-rule="evenodd"><path d="M12.906 44.715a7.894 7.894 0 01-8.036-1.216 8.405 8.405 0 01-2.51-5.422l-.873 1.6a8.757 8.757 0 004.384 6.528 8.721 8.721 0 004.764.638l2.271-2.128zm1.398-24.959a7.895 7.895 0 018.02 1.216 8.451 8.451 0 012.51 5.424l.873-1.6a8.754 8.754 0 00-4.383-6.528 8.814 8.814 0 00-4.765-.64l-2.255 2.128z" fill="#C2912D"/><mask id="c" fill="#fff"><use xlink:href="#a"/></mask><path fill="url(#b)" d="M16.682 10.653h-.016C12.17 15.431 5.13 21.801 3.386 24.015A14.282 14.282 0 00.33 34.27c.415 2.422 1.47 7.199 1.47 7.199a18.414 18.414 0 014.8-10.718c4.497-4.778 11.537-11.149 13.28-13.377a15.884 15.884 0 003.06-10.257A25.027 25.027 0 0021.05.222a15.983 15.983 0 01-4.367 10.431" mask="url(#c)"/><path fill="#FFF" d="M23.881 48.364c-.898-7.123-14.36-28.083-14.098-33.812C10.273 3.8 21.709.27 21.709.27 10.877-1.768.863 8.085 2.105 18.435c.947 7.19 14.458 28.052 14.147 33.813C15.762 63 5.127 65.744 5.127 65.744c8.7 1.553 17.034-4.115 18.616-12.662.287-1.556.334-3.147.138-4.718"/><g transform="translate(3 23)"><mask id="f" fill="#fff"><use xlink:href="#d"/></mask><path fill="url(#e)" d="M17.354 11.621v.08C12.714 16.479 5.45 22.85 3.658 25.126A15.888 15.888 0 00.458 35.4a43.948 43.948 0 001.153 6.895A20.245 20.245 0 016.97 31.8c4.64-4.777 11.905-11.148 13.696-13.424a14.001 14.001 0 003.2-10.273A613.143 613.143 0 0022.314.887a18.36 18.36 0 01-4.96 10.734" mask="url(#f)"/></g><path fill="#FFF" d="M43.67 22.534a4.675 4.675 0 012.855.89.908.908 0 01-.096.713c-.08.242-.353.275-.642.113a5.6 5.6 0 00-2.503-.534c-1.767-.135-3.307 1.203-3.44 2.985-.007.084-.01.169-.01.253 0 1.959 1.605 3.124 3.37 4.436 3.209 2.267 4.22 3.691 4.22 5.845 0 3.092-2.471 4.857-5.488 4.857a6.248 6.248 0 01-3.723-.988.668.668 0 01-.256-.566c0-.81 0-.535.176-.923a6.2 6.2 0 003.915 1.279c1.955.124 3.641-1.372 3.765-3.344.003-.045.005-.092.006-.137 0-2.154-1.476-3.044-4.22-5.181-2.744-2.137-3.338-3.821-3.338-5.181 0-1.62 1.092-4.469 5.36-4.469l.048-.048zm23.491 11.479c-1.797-4.453-2.872-7.254-3.37-8.209-1.235 2.704-2.422 5.246-3.69 8.209h7.06zm-7.558 1.133c-1.444 3.238-2.39 5.149-2.984 6.314a.498.498 0 01-.498.308 2.229 2.229 0 01-1.043-.324v-.243c1.798-3.691 7.141-15.057 8.024-16.967l-.418-1.101a2.44 2.44 0 01.947-.243.625.625 0 01.658.453c1.332 3.044 4.108 9.892 5.376 12.742 1.155 2.526 1.877 4.371 2.326 5.262v.113a2.729 2.729 0 01-1.123.308c-.32 0-.481-.178-.77-.89-.674-1.62-1.091-2.623-2.44-5.716l-8.055-.016zm22.834-2.785a24.11 24.11 0 003.931 0 4.164 4.164 0 002.57-4.112c.192-2.145-1.376-4.045-3.502-4.24a3.96 3.96 0 00-.831.014c-.722-.01-1.443.049-2.15.178l-.018 8.16zm-1.476-5.958v-3.238a19.691 19.691 0 013.722-.356c3.21 0 5.905 1.198 5.905 5.294a5.765 5.765 0 01-3.127 4.97c.465.778 1.122 1.814 2.855 4.291a19.926 19.926 0 003.371 4.048v.113a2.556 2.556 0 01-1.123.259c-.531 0-1.125-.291-1.83-1.214-.964-1.247-1.717-2.3-4.396-6.476a1.25 1.25 0 00-1.332-.713h-2.57v7.48c0 .502-.095.664-.383.713-.393.056-.79.089-1.187.097 0-1.198.078-2.947.078-5.424l.017-9.844zm21.069.745v-3.756a6.534 6.534 0 011.059-.421h7.64a1.978 1.978 0 01-.628.923c-.287.21-.624.21-1.892.21h-4.702v7.35h6.995c-.239 1.102-.802 1.134-1.715 1.134h-5.28v7.772a19.28 19.28 0 004.107.275 35.84 35.84 0 003.933-.146c-.178.421-.563 1.02-1.125 1.101a23.249 23.249 0 01-3.095.13 27.861 27.861 0 01-4.912-.308l-.448-.6.063-13.664zm18.535 0c0-1.425 0-2.639-.113-4.015a31.479 31.479 0 013.723-.308c3.739 0 6.611 1.522 6.611 5.36.178 2.846-1.964 5.3-4.785 5.48a5.034 5.034 0 01-.494.008c-.38.027-.76-.057-1.093-.243a1 1 0 01-.32-.842c.372.068.747.1 1.123.097 2.127.031 3.876-1.682 3.908-3.829a4.147 4.147 0 00-.008-.315c0-4.226-3.209-4.582-5.04-4.582a14.16 14.16 0 00-2.036.113v13.81c0 2.055 0 3.044.08 3.627a3.02 3.02 0 01-1.173.243c-.175 0-.383-.097-.383-.536V27.148zm24.406-3.044h-5.778c-.416 0-.624-.243-.48-.502.205-.285.441-.546.706-.777a21.1 21.1 0 004.429.146h9.257c0 .178-.383.922-.592 1.133h-6.066v13.794c0 2.058 0 3.044.08 3.627-.41.134-.837.217-1.267.243-.209 0-.289-.097-.289-.533V24.104z"/><g transform="translate(157.349 22.619)"><mask id="h" fill="#fff"><use xlink:href="#g"/></mask><path fill="#FFF" d="M12.623 11.394c-1.797-4.469-2.92-7.238-3.355-8.209-1.234 2.704-2.423 5.246-3.691 8.209h7.046zm-7.558 1.133c-1.444 3.238-2.39 5.148-2.985 6.314a.516.516 0 01-.515.308 2.247 2.247 0 01-1.041-.324v-.243C2.32 14.891 7.663 3.525 8.547 1.615L8.082.514A2.38 2.38 0 019.029.27a.608.608 0 01.64.453c1.332 3.044 4.11 9.892 5.377 12.742 1.154 2.526 1.892 4.371 2.327 5.262v.113a2.704 2.704 0 01-1.123.308c-.321 0-.482-.178-.772-.89-.674-1.62-1.09-2.624-2.454-5.716l-7.959-.016z" mask="url(#h)"/></g><path fill="#FFF" d="M61.305 47.597h-2.15c-.161 0-.257-.1-.177-.276.077-.165.186-.314.32-.437a8.276 8.276 0 001.605 0h3.755a.86.86 0 01-.385.648H62.22v6.525a3.58 3.58 0 01-.786.097c-.112 0-.16 0-.16-.21l.032-6.347zm11.473 2.477v-2.817c0-.228 0-.275.224-.291.241-.017.482-.017.722 0v7.107a4.422 4.422 0 01-.786.096c-.112 0-.16 0-.16-.177v-3.32H68.99v3.142c0 .225 0 .26-.273.29-.23.02-.46.02-.69 0v-7.106c.249-.055.5-.086.754-.097.144 0 .193 0 .193.597v2.576h3.803zm5.022-1.522V47.11c.246-.08.5-.135.754-.162h2.792a.976.976 0 01-.289.583c-.27.056-.548.056-.816 0h-1.51v2.51h2.519c-.143.614-.337.663-.706.647h-1.813v2.687c.444.08.897.114 1.348.098.534.029 1.07.029 1.604 0a.935.935 0 01-.513.631 8.494 8.494 0 01-1.284 0 11.245 11.245 0 01-1.91-.113l-.16-.227-.016-5.213zm8.247 1.927c.438.045.88.045 1.316 0 .557-.251.897-.829.852-1.443a1.343 1.343 0 00-1.171-1.49 1.598 1.598 0 00-.305 0 3.795 3.795 0 00-.692 0v2.933zm-.898-2.218v-1.198a9.064 9.064 0 011.604-.162c1.462 0 2.457.516 2.457 2.07a2.218 2.218 0 01-1.189 1.879c.194.34.45.76 1.01 1.619.341.59.75 1.133 1.22 1.619-.199.08-.41.12-.625.115a.962.962 0 01-.817-.47c-.337-.42-.644-.924-1.494-2.299-.273-.388-.353-.388-.562-.388h-.706v2.783c0 .21 0 .259-.19.293h-.739v-2.089l.03-3.772zm12.485 2.929c-.627-1.619-.995-2.574-1.14-2.914-.4.925-.77 1.765-1.235 2.914h2.375zm-2.633.648c-.448 1.02-.785 1.797-.995 2.22a.23.23 0 01-.223.13 2.015 2.015 0 01-.642-.13v-.099a845.473 845.473 0 002.969-6.573l-.145-.357a3.74 3.74 0 01.705-.113.256.256 0 01.258.194c.513 1.198 1.49 3.676 1.926 4.744.431 1.069.722 1.749.914 2.154a2.495 2.495 0 01-.756.129c-.142 0-.208 0-.319-.355-.24-.6-.385-1.005-.82-1.993l-2.872.049zm8.169-3.271V47.03c.53-.087 1.066-.136 1.605-.145 1.605 0 2.696.599 2.696 2.201a2.036 2.036 0 01-1.924 2.138l-.146.001a.8.8 0 01-.401-.082.612.612 0 01-.273-.517h.337c.76.02 1.396-.586 1.417-1.353 0-.059 0-.114-.005-.17 0-1.409-1.011-1.62-1.701-1.62a4.247 4.247 0 00-.642 0v6.558a2.96 2.96 0 01-.754.097c-.112 0-.193 0-.193-.209l-.016-5.36zm7.782-.015V47.11c.244-.08.5-.135.754-.162h2.793a.967.967 0 01-.29.583 1.991 1.991 0 01-.818 0H111.9v2.51h2.52c-.13.614-.322.663-.692.647h-1.86v2.687c.444.08.897.112 1.348.098.534.029 1.07.029 1.604 0a.955.955 0 01-.513.631 8.494 8.494 0 01-1.284 0 11.245 11.245 0 01-1.91-.113l-.176-.227.016-5.213zm8.201 2.104c0 2.493 1.121 2.932 2.005 2.932.883 0 2.038-.649 2.038-3.142v-3.238c0-.211.095-.26.207-.276h.66v3.563c0 3.237-1.605 3.804-2.922 3.804-1.78 0-2.855-.921-2.855-3.708V47.03c.247-.05.5-.082.754-.097.177 0 .193 0 .193.616l-.08 3.108zm10.654-3.059h-2.134c-.177 0-.257-.1-.177-.276a1.49 1.49 0 01.305-.437c.533.052 1.07.052 1.605 0h3.883a.848.848 0 01-.385.648h-2.182v6.525a3.58 3.58 0 01-.787.097c-.128 0-.162 0-.162-.21l.034-6.347zm6.771.858v-1.442c.26-.05.522-.083.787-.096.144 0 .16 0 .16.581v6.575c-.252.062-.51.094-.77.096-.113 0-.16 0-.16-.21l-.017-5.504zm10.446 4.84a1.173 1.173 0 01-.32.664 3.316 3.316 0 01-1.604.324c-1.92.208-3.647-1.194-3.854-3.13a3.657 3.657 0 01-.013-.578 3.748 3.748 0 011.187-2.817 3.842 3.842 0 012.71-.972 2.983 2.983 0 012.022.616.613.613 0 01-.175.437h-.4a3.196 3.196 0 00-1.51-.34c-1.676.168-2.897 1.676-2.732 3.367a3.062 3.062 0 002.958 2.769 4.761 4.761 0 001.731-.322v-.018zm5.521-6.524c.45-.014.893.13 1.251.405a.626.626 0 01-.08.387c0 .13-.209.13-.353 0a2.041 2.041 0 00-.899-.176 1.076 1.076 0 00-1.171 1.068c0 .68.546 1.036 1.3 1.62 1.043.76 1.604 1.278 1.604 2.216a2.012 2.012 0 01-2.246 1.943 2.546 2.546 0 01-1.492-.387.328.328 0 01-.16-.277c0-.18.055-.356.16-.5.431.323.954.498 1.492.5a1.19 1.19 0 001.295-1.079l.005-.087c0-.678-.417-.986-1.509-1.813-1.09-.824-1.3-1.456-1.3-2.006 0-.552.434-1.848 2.167-1.848l-.064.034z"/></g></svg>