<svg xmlns="http://www.w3.org/2000/svg" viewBox="0 0 20.87 36.83"><defs><style>.cls-1{fill:#011931;}</style></defs><title>arrow</title><g id="Layer_2" data-name="Layer 2"><g id="Layer_1-2" data-name="Layer 1"><path class="cls-1" d="M20.12,1.87A45.8,45.8,0,0,0,5.22.05a.83.83,0,0,0,0,1.66c2.13.1,4.26.1,6.37.34a36.9,36.9,0,0,1,3.64.63A24.07,24.07,0,0,0,9.06,5.15c-6.53,3.79-9.51,11-9,18.42a45.49,45.49,0,0,0,1,6.57,32.45,32.45,0,0,0,1.7,6.38c.27.6,1.08.23,1.13-.3A22.65,22.65,0,0,0,3.31,31c-.29-1.85-.57-3.71-.72-5.58A22.5,22.5,0,0,1,4.16,14.33C6.38,9.42,10.84,6.41,15.92,5c.49-.14,1-.25,1.47-.35L15.08,8.1,13.14,11a11.12,11.12,0,0,0-1.77,2.92c-.19.69.67,1.52,1.33,1a10.78,10.78,0,0,0,2.05-2.67l2-3c1.32-2,2.65-3.91,3.95-5.89A1,1,0,0,0,20.12,1.87Z"/></g></g></svg>